<svg width="74" height="75" viewBox="0 0 74 75" fill="none" xmlns="http://www.w3.org/2000/svg">
<g clip-path="url(#clip0_18_2615)">
<path d="M0 0.5H74V74.5H0V0.5Z" fill="url(#paint0_linear_18_2615)"/>
<path d="M24.875 49.925H48V26.8H24.875V49.925ZM49.85 26.8H53.55V28.65H49.85V32.35H53.55V34.2H49.85V36.975H53.55V38.825H49.85V42.525H53.55V44.375H49.85V48.075H53.55V49.925H49.85V50.0508C49.8496 50.5079 49.6678 50.9463 49.3446 51.2696C49.0213 51.5928 48.5829 51.7746 48.1257 51.775H48V55.475H46.15V51.775H42.45V55.475H40.6V51.775H37.825V55.475H35.975V51.775H32.275V55.475H30.425V51.775H26.725V55.475H24.875V51.775H24.7493C24.2921 51.7746 23.8537 51.5928 23.5304 51.2696C23.2072 50.9463 23.0254 50.5079 23.025 50.0508V49.925H20.25V48.075H23.025V44.375H20.25V42.525H23.025V38.825H20.25V36.975H23.025V34.2H20.25V32.35H23.025V28.65H20.25V26.8H23.025V26.6743C23.0254 26.2171 23.2072 25.7787 23.5304 25.4554C23.8537 25.1322 24.2921 24.9504 24.7493 24.95H24.875V21.25H26.725V24.95H30.425V21.25H32.275V24.95H35.975V21.25H37.825V24.95H40.6V21.25H42.45V24.95H46.15V21.25H48V24.95H48.1257C48.5829 24.9504 49.0213 25.1322 49.3446 25.4554C49.6678 25.7787 49.8496 26.2171 49.85 26.6743V26.8ZM37.825 61.8352C37.8248 61.8656 37.8126 61.8947 37.7911 61.9161C37.7697 61.9376 37.7406 61.9498 37.7102 61.95H12.9648C12.9344 61.9498 12.9053 61.9376 12.8839 61.9161C12.8624 61.8947 12.8502 61.8656 12.85 61.8352V37.0898C12.8502 37.0594 12.8624 37.0303 12.8839 37.0089C12.9053 36.9874 12.9344 36.9752 12.9648 36.975H18.4V35.125H12.9648C12.4439 35.1256 11.9445 35.3328 11.5761 35.7011C11.2078 36.0695 11.0006 36.5689 11 37.0898V61.8352C11.0006 62.3561 11.2078 62.8555 11.5761 63.2239C11.9445 63.5922 12.4439 63.7994 12.9648 63.8H37.7102C38.2311 63.7994 38.7305 63.5922 39.0989 63.2239C39.4672 62.8555 39.6744 62.3561 39.675 61.8352V57.325H37.825V61.8352ZM62.8 13.9648V38.7102C62.7994 39.2311 62.5922 39.7305 62.2239 40.0989C61.8555 40.4672 61.3561 40.6744 60.8352 40.675H55.4V38.825H60.8352C60.8656 38.8248 60.8947 38.8126 60.9161 38.7911C60.9376 38.7697 60.9498 38.7406 60.95 38.7102V13.9648C60.9498 13.9344 60.9376 13.9053 60.9161 13.8839C60.8947 13.8624 60.8656 13.8502 60.8352 13.85H36.0898C36.0594 13.8502 36.0303 13.8624 36.0089 13.8839C35.9874 13.9053 35.9752 13.9344 35.975 13.9648V19.4H34.125V13.9648C34.1256 13.4439 34.3328 12.9445 34.7011 12.5761C35.0695 12.2078 35.5689 12.0006 36.0898 12H60.8352C61.3561 12.0006 61.8555 12.2078 62.2239 12.5761C62.5922 12.9445 62.7994 13.4439 62.8 13.9648Z" fill="white"/>
</g>
<defs>
<linearGradient id="paint0_linear_18_2615" x1="0" y1="7400.5" x2="7400" y2="0.5" gradientUnits="userSpaceOnUse">
<stop stop-color="#C8511B"/>
<stop offset="1" stop-color="#FF9900"/>
</linearGradient>
<clipPath id="clip0_18_2615">
<rect y="0.5" width="74" height="74" rx="5" fill="white"/>
</clipPath>
</defs>
</svg>
