<svg width="48" height="48" viewBox="0 0 48 48" fill="none" xmlns="http://www.w3.org/2000/svg">
<path d="M36.84 18.42C35.6166 15.6116 33.5059 13.282 30.8315 11.7883C28.1571 10.2946 25.0665 9.71934 22.0338 10.1506C19.001 10.582 16.1934 11.996 14.0415 14.1761C11.8895 16.3562 10.5119 19.1819 10.12 22.22C8.2132 22.6766 6.54047 23.8177 5.4195 25.4264C4.29853 27.0351 3.80739 28.9995 4.03935 30.9464C4.27131 32.8934 5.21021 34.6874 6.67776 35.9877C8.1453 37.288 10.0393 38.0041 12 38H34C36.3987 37.9934 38.7152 37.1248 40.5268 35.5526C42.3384 33.9804 43.5246 31.8094 43.8689 29.4355C44.2132 27.0616 43.6928 24.643 42.4025 22.6209C41.1122 20.5988 39.138 19.1078 36.84 18.42ZM34 34H12C10.9392 34 9.92174 33.5786 9.1716 32.8284C8.42145 32.0783 8.00002 31.0609 8.00002 30C8.00002 28.9391 8.42145 27.9217 9.1716 27.1716C9.92174 26.4214 10.9392 26 12 26C12.5305 26 13.0392 25.7893 13.4142 25.4142C13.7893 25.0391 14 24.5304 14 24C14.0051 21.6346 14.8486 19.3475 16.3806 17.5452C17.9125 15.7428 20.0338 14.5419 22.3675 14.1557C24.7012 13.7696 27.0963 14.2232 29.1272 15.436C31.158 16.6488 32.6932 18.5423 33.46 20.78C33.5774 21.12 33.7842 21.422 34.0587 21.6543C34.3332 21.8866 34.6653 22.0406 35.02 22.1C36.486 22.3705 37.7988 23.1771 38.7027 24.3625C39.6065 25.548 40.0367 27.0275 39.9094 28.5128C39.7821 29.9981 39.1064 31.3828 38.014 32.3972C36.9216 33.4115 35.4907 33.9829 34 34Z" fill="white"/>
</svg>
